<svg width="12" height="16" viewBox="0 0 12 16" fill="none" xmlns="http://www.w3.org/2000/svg">
<g clip-path="url(#clip0_3462_12)">
<path d="M8.75 2H10C11.1031 2 12 2.89688 12 4V14C12 15.1031 11.1031 16 10 16H2C0.896875 16 0 15.1031 0 14V4C0 2.89688 0.896875 2 2 2H3.25H3.55C3.78125 0.859375 4.79062 0 6 0C7.20938 0 8.21875 0.859375 8.45 2H8.75ZM2 3.5C1.725 3.5 1.5 3.725 1.5 4V14C1.5 14.275 1.725 14.5 2 14.5H10C10.275 14.5 10.5 14.275 10.5 14V4C10.5 3.725 10.275 3.5 10 3.5H9.5V4.25C9.5 4.66563 9.16563 5 8.75 5H6H3.25C2.83437 5 2.5 4.66563 2.5 4.25V3.5H2ZM6 3.25C6.19891 3.25 6.38968 3.17098 6.53033 3.03033C6.67098 2.88968 6.75 2.69891 6.75 2.5C6.75 2.30109 6.67098 2.11032 6.53033 1.96967C6.38968 1.82902 6.19891 1.75 6 1.75C5.80109 1.75 5.61032 1.82902 5.46967 1.96967C5.32902 2.11032 5.25 2.30109 5.25 2.5C5.25 2.69891 5.32902 2.88968 5.46967 3.03033C5.61032 3.17098 5.80109 3.25 6 3.25Z" fill="#1686F0"/>
<rect x="2" y="6" width="8" height="1.5" rx="0.75" fill="#1686F0"/>
<rect x="2" y="9" width="8" height="1.5" rx="0.75" fill="#1686F0"/>
<rect x="2" y="12" width="8" height="1.5" rx="0.75" fill="#1686F0"/>
</g>
<defs>
<clipPath id="clip0_3462_12">
<rect width="12" height="16" fill="white"/>
</clipPath>
</defs>
</svg>
