<svg width="11" height="5" viewBox="0 0 11 5" fill="none" xmlns="http://www.w3.org/2000/svg">
<rect width="2" height="2" rx="1" fill="#d8d8d8"/>
<rect x="6" width="2" height="2" rx="1" fill="#d8d8d8"/>
<path d="M6 4C6 3.44772 6.44772 3 7 3V3C7.55228 3 8 3.44772 8 4V4C8 4.55228 7.55228 5 7 5V5C6.44772 5 6 4.55228 6 4V4Z" fill="#d8d8d8"/>
<path d="M9 4C9 3.44772 9.44772 3 10 3V3C10.5523 3 11 3.44772 11 4V4C11 4.55228 10.5523 5 10 5V5C9.44772 5 9 4.55228 9 4V4Z" fill="#d8d8d8"/>
<path d="M9 1C9 0.447715 9.44772 0 10 0V0C10.5523 0 11 0.447715 11 1V1C11 1.55228 10.5523 2 10 2V2C9.44772 2 9 1.55228 9 1V1Z" fill="#d8d8d8"/>
<rect x="3" y="3" width="2" height="2" rx="1" fill="#d8d8d8"/>
<rect y="3" width="2" height="2" rx="1" fill="#d8d8d8"/>
<rect x="3" width="2" height="2" rx="1" fill="#d8d8d8"/>
</svg>
